#!OML:ASF F:\VICON\USERDATA\INSTALL\rory3\rory3.ASF
:FULLY-SPECIFIED
:DEGREES
1079
root 0.236349 18.4677 -5.13643 -4.22356 10.3212 4.99381
lowerback 19.4491 -6.77034 -5.79959
upperback 7.71444 -9.80707 0.334497
thorax -1.36339 -5.00198 5.46383
lowerneck -18.3737 0.44094 -6.54792
upperneck 2.78346 1.54377 6.21311
head 3.6526 1.03521 3.11093
rclavicle 2.96189e-014 -1.53064e-014
rhumerus -37.3771 -18.8158 -45.4487
rradius 64.932
rwrist -16.1211
rhand -31.4158 9.0175
rfingers 7.12502
rthumb -4.68469 -20.9107
lclavicle 2.96189e-014 -1.53064e-014
lhumerus 29.4017 -4.14182 75.0892
lradius 145.316
lwrist 15.0265
lhand -36.3638 9.38542
lfingers 7.12502
lthumb -9.46083 39.1531
rfemur -55.1354 -2.51493 3.5425
rtibia 103.632
rfoot -9.38095 -18.1084
rtoes 0.134432
lfemur -8.79919 6.49706 -27.207
ltibia 28.1955
lfoot -12.0662 1.02466
ltoes 10.1071
1080
root 0.216589 18.4579 -5.09408 -4.36861 10.115 5.1238
lowerback 18.6733 -6.61843 -5.87637
upperback 7.8094 -9.58577 0.352197
thorax -0.877637 -4.92048 5.37045
lowerneck -18.3172 0.427887 -6.57419
upperneck 2.76591 1.53352 6.1655
head 3.63916 1.02634 3.09846
rclavicle -1.62159e-013 7.17613e-014
rhumerus -36.9086 -18.96 -45.2815
rradius 66.4022
rwrist -16.9254
rhand -31.0638 8.44274
rfingers 7.12502
rthumb -4.34478 -21.4927
lclavicle -1.62159e-013 7.17613e-014
lhumerus 28.477 -3.74469 73.8558
lradius 145.328
lwrist 14.9712
lhand -36.3371 9.93774
lfingers 7.12502
lthumb -9.43503 39.7066
rfemur -52.8251 -1.80462 3.21183
rtibia 101.37
rfoot -9.34054 -18.264
rtoes 0.0767882
lfemur -8.51991 6.25928 -27.2463
ltibia 28.3015
lfoot -12.4425 1.39462
ltoes 10.0766
1081
root 0.19487 18.4527 -5.05069 -4.47175 9.86239 5.17324
lowerback 17.9911 -6.50211 -5.79041
upperback 7.78612 -9.39323 0.30779
thorax -0.601775 -4.83441 5.15846
lowerneck -18.0864 0.453548 -6.50227
upperneck 2.71001 1.53998 6.17115
head 3.58711 1.02789 3.08567
rclavicle 8.50798e-014 -3.81667e-014
rhumerus -36.5221 -18.9882 -45.224
rradius 67.8405
rwrist -17.8786
rhand -31.7862 8.14239
rfingers 7.12502
rthumb -5.04225 -21.7776
lclavicle 8.50798e-014 -3.81667e-014
lhumerus 27.389 -3.50196 72.6043
lradius 145.216
lwrist 15.1543
lhand -36.2582 9.81761
lfingers 7.12502
lthumb -9.35892 39.5898
rfemur -50.5576 -0.993582 3.03454
rtibia 98.9684
rfoot -9.38054 -18.3715
rtoes -0.426377
lfemur -8.3225 6.13593 -27.1894
ltibia 28.4539
lfoot -12.7443 1.65343
ltoes 9.75702
1082
root 0.170097 18.4494 -5.0028 -4.55657 9.45715 5.06931
lowerback 17.9786 -6.32195 -5.62054
upperback 7.24939 -9.14885 0.428095
thorax -1.21219 -4.67438 5.20533
lowerneck -17.712 0.503144 -6.55067
upperneck 3.06388 1.59212 6.08017
head 3.63544 1.04159 3.0678
rclavicle -1.19668e-013 1.39149e-014
rhumerus -36.584 -18.3431 -44.7904
rradius 69.4029
rwrist -19.2889
rhand -31.6269 8.18996
rfingers 7.12502
rthumb -4.88848 -21.7336
lclavicle -1.19668e-013 1.39149e-014
lhumerus 25.6059 -3.53669 71.5851
lradius 145.153
lwrist 15.2223
lhand -36.1905 10.4008
lfingers 7.12502
lthumb -9.29365 40.176
rfemur -48.3809 -0.017658 3.10795
rtibia 96.4329
rfoot -9.28209 -18.5603
rtoes -1.21982
lfemur -8.17189 6.10435 -26.9476
ltibia 28.6224
lfoot -13.0669 1.97262
ltoes 9.4532
1083
root 0.14458 18.4461 -4.95628 -4.64751 9.06664 4.80647
lowerback 17.6164 -6.1741 -5.32438
upperback 6.97697 -8.89872 0.579325
thorax -1.37174 -4.53599 5.14331
lowerneck -17.5688 0.547362 -6.54279
upperneck 3.29519 1.64378 5.96416
head 3.68187 1.05778 3.03467
rclavicle -1.12512e-013 3.77691e-014
rhumerus -36.3215 -18.0421 -44.4804
rradius 70.9697
rwrist -20.7895
rhand -30.9904 7.80677
rfingers 7.12502
rthumb -4.27385 -22.1301
lclavicle -1.12512e-013 3.77691e-014
lhumerus 24.2086 -3.56719 70.4652
lradius 145
lwrist 15.2048
lhand -36.2885 11.0301
lfingers 7.12502
lthumb -9.38823 40.801
rfemur -46.1994 0.971932 3.3781
rtibia 93.7416
rfoot -9.10385 -18.7094
rtoes -1.68228
lfemur -8.05268 5.92319 -26.5484
ltibia 28.8068
lfoot -13.4547 2.36441
ltoes 9.63932
